<?xml version="1.0" standalone="no"?><!DOCTYPE svg PUBLIC "-//W3C//DTD SVG 1.1//EN" "http://www.w3.org/Graphics/SVG/1.1/DTD/svg11.dtd"><svg t="1521028509573" class="icon" style="" viewBox="0 0 1024 1024" version="1.1" xmlns="http://www.w3.org/2000/svg" p-id="12969" xmlns:xlink="http://www.w3.org/1999/xlink" width="128" height="128"><defs><style type="text/css"></style></defs><path d="M146.285714 341.142857q0-61.714286 21.428571-116.285714t59.142857-95.142857 86.857143-70.285714 105.714286-44.571429 115.428571-14.857143q90.285714 0 168 38t126.285714 110.571429 48.571429 164q0 54.857143-10.857143 107.428571t-34.285714 101.142857-57.142857 85.428571-82.857143 58.857143-108 22q-38.857143 0-77.142857-18.285714t-54.857143-50.285714q-5.714286 22.285714-16 64.285714t-13.428571 54.285714-11.714286 40.571429-14.857143 40.571429-18.285714 35.714286-26.285714 44.285714-35.428571 49.428571l-8 2.857143-5.142857-5.714286q-8.571429-89.714286-8.571429-107.428571 0-52.571429 12.285714-118t38-164.285714 29.714286-116q-18.285714-37.142857-18.285714-96.571429 0-47.428571 29.714286-89.142857t75.428571-41.714286q34.857143 0 54.285714 23.142857t19.428571 58.571429q0 37.714286-25.142857 109.142857t-25.142857 106.857143q0 36 25.714286 59.714286t62.285714 23.714286q31.428571 0 58.285714-14.285714t44.857143-38.857143 32-54.285714 21.714286-63.142857 11.428571-63.428571 3.714286-56.857143q0-98.857143-62.571429-154t-163.142857-55.142857q-114.285714 0-190.857143 74t-76.571429 187.714286q0 25.142857 7.142857 48.571429t15.428571 37.142857 15.428571 26 7.142857 17.428571q0 16-8.571429 41.714286t-21.142857 25.714286q-1.142857 0-9.714286-1.714286-29.142857-8.571429-51.714286-32t-34.857143-54-18.571429-61.714286-6.285714-60.857143z" p-id="12970"></path></svg>